<?xml version="1.0" encoding="UTF-8"?>
<svg width="1200pt" height="1200pt" version="1.1" viewBox="0 0 1200 1200" xmlns="http://www.w3.org/2000/svg">
 <path d="m135.48 0h929.03c74.828 0 135.48 60.656 135.48 135.48 0 74.824-60.656 135.48-135.48 135.48h-929.03c-74.828 0-135.48-60.66-135.48-135.48 0-74.828 60.656-135.48 135.48-135.48zm793.55 832.26c0-53.445-43.328-96.773-96.773-96.773h-696.77c-74.828 0-135.48-60.66-135.48-135.48s60.656-135.48 135.48-135.48h832.26c128.27 0 232.26 103.98 232.26 232.26v270.97c0 128.27-103.98 232.26-232.26 232.26h-832.26c-74.828 0-135.48-60.656-135.48-135.48 0-74.824 60.656-135.48 135.48-135.48h696.77c53.445 0 96.773-43.328 96.773-96.773z" fill-rule="evenodd"/>
</svg>
